REM DIRINDEX 1\2,1\4,1\3\5,1\3\6,1\3\7
REM DIRNAME folder01,folder02,folder03,folder04,folder05,folder06,folder07
TITLE ""
FILE "CD1Track41.mp3" MP3
  TRACK 01 AUDIO
    TITLE "0:"
    INDEX 01 00:00:00
  TRACK 02 AUDIO
    TITLE "5:cjc082_0729"
    INDEX 01 00:00:31
  TRACK 03 AUDIO
    TITLE "0:"
    INDEX 01 00:01:52
  TRACK 04 AUDIO
    TITLE "6:cjc082_0730"
    INDEX 01 00:02:22
  TRACK 05 AUDIO
    TITLE "0:"
    INDEX 01 00:05:01
  TRACK 06 AUDIO
    TITLE "5:cjc082_0731"
    INDEX 01 00:05:46
  TRACK 07 AUDIO
    TITLE "0:"
    INDEX 01 00:06:55
  TRACK 08 AUDIO
    TITLE "6:cjc082_0732"
    INDEX 01 00:07:25
  TRACK 09 AUDIO
    TITLE "0:"
    INDEX 01 00:10:31
  TRACK 10 AUDIO
    TITLE "5:cjc082_0733"
    INDEX 01 00:11:07
  TRACK 11 AUDIO
    TITLE "0:"
    INDEX 01 00:12:24
  TRACK 12 AUDIO
    TITLE "6:cjc082_0734"
    INDEX 01 00:13:00
  TRACK 13 AUDIO
    TITLE "0:"
    INDEX 01 00:16:20
  TRACK 14 AUDIO
    TITLE "5:cjc082_0735"
    INDEX 01 00:16:67
  TRACK 15 AUDIO
    TITLE "0:"
    INDEX 01 00:18:07
  TRACK 16 AUDIO
    TITLE "6:cjc082_0736"
    INDEX 01 00:18:56
  TRACK 17 AUDIO
    TITLE "0:"
    INDEX 01 00:20:02
  TRACK 18 AUDIO
    TITLE "5:cjc082_0737"
    INDEX 01 00:20:51
  TRACK 19 AUDIO
    TITLE "0:"
    INDEX 01 00:22:05
  TRACK 20 AUDIO
    TITLE "6:cjc082_0738"
    INDEX 01 00:22:58
  TRACK 21 AUDIO
    TITLE "0:"
    INDEX 01 00:25:23
  TRACK 22 AUDIO
    TITLE "5:cjc082_0739"
    INDEX 01 00:25:72
  TRACK 23 AUDIO
    TITLE "0:"
    INDEX 01 00:27:04
  TRACK 24 AUDIO
    TITLE "6:cjc082_0740"
    INDEX 01 00:27:55
  TRACK 25 AUDIO
    TITLE "0:"
    INDEX 01 00:31:65
  TRACK 26 AUDIO
    TITLE "5:cjc082_0741"
    INDEX 01 00:32:37
  TRACK 27 AUDIO
    TITLE "0:"
    INDEX 01 00:33:60
  TRACK 28 AUDIO
    TITLE "6:cjc082_0742"
    INDEX 01 00:34:36
  TRACK 29 AUDIO
    TITLE "0:"
    INDEX 01 00:36:31
  TRACK 30 AUDIO
    TITLE "5:cjc082_0743"
    INDEX 01 00:37:07
  TRACK 31 AUDIO
    TITLE "0:"
    INDEX 01 00:38:22
  TRACK 32 AUDIO
    TITLE "6:cjc082_0744"
    INDEX 01 00:38:71
  TRACK 33 AUDIO
    TITLE "0:"
    INDEX 01 00:40:26
  TRACK 34 AUDIO
    TITLE "5:cjc082_0745"
    INDEX 01 00:40:73
  TRACK 35 AUDIO
    TITLE "0:"
    INDEX 01 00:42:27
  TRACK 36 AUDIO
    TITLE "6:cjc082_0746"
    INDEX 01 00:43:03
  TRACK 37 AUDIO
    TITLE "0:"
    INDEX 01 00:44:30
  TRACK 38 AUDIO
    TITLE "5:cjc082_0747"
    INDEX 01 00:45:02
  TRACK 39 AUDIO
    TITLE "0:"
    INDEX 01 00:46:27
  TRACK 40 AUDIO
    TITLE "6:cjc082_0748"
    INDEX 01 00:47:01
  TRACK 41 AUDIO
    TITLE "0:"
    INDEX 01 00:48:28
  TRACK 42 AUDIO
    TITLE "5:cjc082_0749"
    INDEX 01 00:49:00
  TRACK 43 AUDIO
    TITLE "0:"
    INDEX 01 00:50:25
  TRACK 44 AUDIO
    TITLE "6:cjc082_0750"
    INDEX 01 00:50:72
  TRACK 45 AUDIO
    TITLE "0:"
    INDEX 01 00:54:44
  TRACK 46 AUDIO
    TITLE "5:cjc082_0751"
    INDEX 01 00:55:18
  TRACK 47 AUDIO
    TITLE "0:"
    INDEX 01 00:56:27
  TRACK 48 AUDIO
    TITLE "6:cjc082_0752"
    INDEX 01 00:57:09
  TRACK 49 AUDIO
    TITLE "0:"
    INDEX 01 00:58:38
  TRACK 50 AUDIO
    TITLE "5:cjc082_0753"
    INDEX 01 00:59:08
  TRACK 51 AUDIO
    TITLE "0:"
    INDEX 01 01:00:29
  TRACK 52 AUDIO
    TITLE "6:cjc082_0754"
    INDEX 01 01:01:05
  TRACK 53 AUDIO
    TITLE "0:"
    INDEX 01 01:03:41
  TRACK 54 AUDIO
    TITLE "5:cjc082_0755"
    INDEX 01 01:04:11
  TRACK 55 AUDIO
    TITLE "0:"
    INDEX 01 01:05:54
  TRACK 56 AUDIO
    TITLE "6:cjc082_0756"
    INDEX 01 01:06:30
  TRACK 57 AUDIO
    TITLE "0:"
    INDEX 01 01:09:14
  TRACK 58 AUDIO
    TITLE "5:cjc082_0757"
    INDEX 01 01:09:59
  TRACK 59 AUDIO
    TITLE "0:"
    INDEX 01 01:11:31
  TRACK 60 AUDIO
    TITLE "6:cjc082_0758"
    INDEX 01 01:12:09
  TRACK 61 AUDIO
    TITLE "0:"
    INDEX 01 01:14:25
  TRACK 62 AUDIO
    TITLE "7:cjc082_0759"
    INDEX 01 01:15:64
  TRACK 63 AUDIO
    TITLE "0:"
    INDEX 01 01:26:23
